<?xml version="1.0" encoding="UTF-8"?>
<svg width="480" height="480" version="1.1" viewBox="0 0 127.00001 126.99999" xmlns="http://www.w3.org/2000/svg"><defs><clipPath id="a"><path class="st0" d="m58.651 180.96-25.144-43.607c-2.3274-4.0403-2.3274-9.0221 0-13.062l25.144-43.607c2.3405-4.0534 6.6555-6.5378 11.323-6.5378h50.275c4.668 0 8.996 2.4974 11.323 6.5378l25.157 43.594c2.3274 4.0403 2.3274 9.0221 0 13.062l-25.144 43.62c-2.3405 4.0534-6.6554 6.5378-11.323 6.5378h-50.275c-4.681 0-8.996-2.4974-11.336-6.5378z" fill="#7c4dff" stroke-width=".13076"/></clipPath></defs><g transform="translate(-31.761 -60.501)"><g transform="translate(.14252 -6.8241)"><g transform="matrix(.13076 0 0 .13076 16.665 52.365)"><path id="XMLID_1_" class="st0" d="m321.1 983.5-192.3-333.5c-17.8-30.9-17.8-69 0-99.9l192.3-333.5c17.9-31 50.9-50 86.6-50h384.5c35.7 0 68.8 19.1 86.6 50l192.4 333.4c17.8 30.9 17.8 69 0 99.9l-192.3 333.6c-17.9 31-50.9 50-86.6 50h-384.5c-35.8 0-68.8-19.1-86.7-50z" fill="#7c4dff"/><g fill="#f7f7f7"><path id="XMLID_2_" class="st1" d="m421.4 522.4h395.6c4.9 0 8.9-4 8.9-8.9v-74.1c0-49.3-40-89.3-89.3-89.3h-237.5c-69.1-0.1-125.1 55.9-125.1 125 0 26.1 21.2 47.3 47.4 47.3z"/><path id="XMLID_3_" class="st1" d="m460.2 850h236.4c71.4 0 129.3-57.9 129.3-129.3 0-23.8-19.3-43.1-43.1-43.1h-400.2c-4.8 0-8.6 3.9-8.6 8.6v77.6c0 47.6 38.6 86.2 86.2 86.2z"/><path id="XMLID_4_" class="st1" d="m391.5 512.6 295 295c19.5 19.5 51.2 19.5 70.7 0l51.2-51.2c19.5-19.5 19.5-51.2 0-70.7l-295-295c-19.5-19.5-51.2-19.5-70.7 0l-51.2 51.2c-19.5 19.5-19.5 51.2 0 70.7z"/></g><polygon id="XMLID_6_" class="st2" points="518.1 677.6 556.5 677.6 691.4 812.5" fill="#444" opacity=".3"/><polygon id="XMLID_5_" class="st2" points="645.2 522.4 691.4 522.4 508.6 385.8" fill="#444" opacity=".3"/></g><path d="m106.83 68.858h35v54.621l-17.5-13.856-17.5 13.856z" clip-path="url(#a)" fill="#dd352e"/></g></g><style type="text/css">.st0{fill:#7C4DFF;}
	.st1{fill:#F7F7F7;}
	.st2{opacity:0.3;fill:#444444;}</style></svg>
